<?xml version="1.0" encoding="UTF-8"?> <svg xmlns="http://www.w3.org/2000/svg" xmlns:xlink="http://www.w3.org/1999/xlink" style="enable-background:new 0 0 1728 1296;" xml:space="preserve" width="515.538510971518" height="346.9230770923682"><rect id="backgroundrect" width="100%" height="100%" x="0" y="0" fill="none" stroke="none"></rect> <style type="text/css"> .st0{fill-rule:evenodd;clip-rule:evenodd;fill:#FFD200;} .st1{fill:#4D4D4F;} </style> <g class="currentLayer" style=""><title>Layer 1</title><polygon class="st0" points="370.61387634277344,213.69384765625 262.80384826660156,276.01385498046875 262.80384826660156,151.3638916015625 " id="svg_1"></polygon><polygon class="st0" points="241.22386169433594,141.26385498046875 133.4138641357422,203.5938720703125 133.4138641357422,78.93389892578125 " id="svg_2"></polygon><polygon class="st0" points="141.84385681152344,213.69384765625 249.6538543701172,151.3638916015625 249.6538543701172,276.01385498046875 " id="svg_3"></polygon><polygon class="st0" points="500.0138397216797,137.993896484375 392.19383239746094,200.3238525390625 392.19383239746094,75.66387939453125 " id="svg_4"></polygon><polygon class="st0" points="500.0138397216797,283.5738525390625 392.19383239746094,345.90386962890625 392.19383239746094,221.25384521484375 " id="svg_5"></polygon><polygon class="st0" points="402.31382751464844,210.3238525390625 510.11387634277344,148.00384521484375 510.11387634277344,272.65386962890625 " id="svg_6"></polygon><polygon class="st0" points="402.31382751464844,66.3138427734375 510.11387634277344,3.983856201171875 510.11387634277344,128.64385986328125 " id="svg_7"></polygon><polygon class="st0" points="111.83384704589844,65.453857421875 4.0238494873046875,127.78387451171875 4.0238494873046875,3.123870849609375 " id="svg_8"></polygon><polygon class="st0" points="111.83384704589844,210.3238525390625 4.0238494873046875,272.65386962890625 4.0238494873046875,148.00384521484375 " id="svg_9"></polygon><polygon class="st0" points="12.44384765625,283.5738525390625 120.26383972167969,221.25384521484375 120.26383972167969,345.90386962890625 " id="svg_10"></polygon><polygon class="st0" points="12.44384765625,137.88385009765625 120.26383972167969,75.55389404296875 120.26383972167969,200.2138671875 " id="svg_11"></polygon><polygon class="st0" points="271.2338409423828,141.26385498046875 379.0338592529297,78.93389892578125 379.0338592529297,203.5938720703125 " id="svg_12"></polygon><g id="svg_13" class=""> <path class="st1" d="M663.2638543701172,107.26386962890626 c1.02,-2.26 2.37,-3.64 4.86,-3.64 c2.94,0 5.08,2.01 5.08,5.65 v74.16 c0,3.14 -1.92,5.77 -5.08,5.77 c-3.27,0 -5.19,-2.63 -5.19,-5.77 v-50.82 l-23.49,53.08 c-0.9,2.13 -2.26,3.51 -4.74,3.51 s-3.84,-1.3800000000000001 -4.74,-3.51 l-23.49,-53.08 v50.82 c0,3.14 -1.92,5.77 -5.19,5.77 c-3.16,0 -5.08,-2.63 -5.08,-5.77 v-74.16 c0,-3.64 2.15,-5.65 5.08,-5.65 c2.48,0 3.84,1.3800000000000001 4.86,3.64 l28.57,65.13 L663.2638543701172,107.26386962890626 z" id="svg_14"></path> <path class="st1" d="M753.7238543701172,188.2038696289062 H710.3538543701172 c-3.27,0 -5.53,-2.63 -5.53,-6.02 V110.65386962890625 c0,-3.39 2.48,-6.02 5.53,-6.02 h41.67 c2.8200000000000003,0 5.2,2.38 5.2,5.52 s-2.37,5.52 -5.2,5.52 h-36.36 v24.22 h20.55 c2.71,0 4.97,2.38 4.97,5.52 c0,3.26 -2.26,5.52 -4.97,5.52 h-20.55 v26.23 h38.06 c2.8200000000000003,0 5.2,2.13 5.2,5.52 C758.9138543701172,185.8238696289062 756.5438543701172,188.2038696289062 753.7238543701172,188.2038696289062 z" id="svg_15"></path> <path class="st1" d="M810.7538543701172,188.2038696289062 H789.8538543701172 c-3.05,0 -5.53,-2.7600000000000002 -5.53,-6.15 v-71.28 c0,-3.39 2.48,-6.15 5.53,-6.15 h20.89 c23.26,0 37.72,17.82 37.72,41.79 S834.0138543701172,188.2038696289062 810.7538543701172,188.2038696289062 zM810.4138543701172,115.67386962890623 h-15.25 v61.49 h15.25 c17.28,0 27.22,-12.8 27.22,-30.74 S827.6938543701172,115.67386962890623 810.4138543701172,115.67386962890623 z" id="svg_16"></path> <path class="st1" d="M881.6738543701172,189.2138696289062 c-3.27,0 -5.53,-2.7600000000000002 -5.53,-6.15 v-73.29 c0,-3.39 2.15,-6.15 5.53,-6.15 c3.16,0 5.3100000000000005,2.51 5.3100000000000005,6.15 v73.29 C886.9738543701171,186.4538696289062 884.8338543701173,189.2138696289062 881.6738543701172,189.2138696289062 z" id="svg_17"></path> <path class="st1" d="M983.7638543701171,181.05386962890623 c0.3400000000000001,0.8800000000000001 0.56,1.6300000000000001 0.56,2.51 c0,2.89 -1.6900000000000002,5.65 -5.08,5.65 c-2.6,0 -4.07,-1.51 -4.86,-3.51 l-7.57,-18.32 h-35.46 l-7.57,18.32 c-0.79,2.01 -2.26,3.51 -4.86,3.51 c-3.39,0 -5.08,-2.7600000000000002 -5.08,-5.65 c0,-0.8800000000000001 0.23,-1.6300000000000001 0.56,-2.51 l29.81,-73.91 c0.9,-2.38 2.48,-3.51 4.86,-3.51 c2.37,0 3.95,1.13 4.86,3.51 L983.7638543701171,181.05386962890623 zM949.0938543701172,121.19386962890621 l-13.78,35.51 h27.56 L949.0938543701172,121.19386962890621 z" id="svg_18"></path> <path class="st1" d="M1051.8538543701172,115.92386962890623 h-21.12 v67.14 c0,3.39 -2.15,6.15 -5.3100000000000005,6.15 c-3.2800000000000002,0 -5.53,-2.7600000000000002 -5.53,-6.15 v-67.14 h-21.34 c-2.8200000000000003,0 -5.19,-2.51 -5.19,-5.52 c0,-3.26 2.26,-5.77 5.19,-5.77 h53.3 c2.94,0 5.19,2.51 5.19,5.77 C1057.0538543701173,113.41386962890624 1054.6838543701172,115.92386962890623 1051.8538543701172,115.92386962890623 z" id="svg_19"></path> <path class="st1" d="M1086.8638543701172,189.2138696289062 c-3.2800000000000002,0 -5.53,-2.7600000000000002 -5.53,-6.15 v-72.28 c0,-3.64 2.15,-6.15 5.53,-6.15 h30.38 c17.17,0 25.64,10.16 25.64,24.6 c0,11.17 -5.3100000000000005,19.45 -15.47,22.59 l12.65,28.74 c0.3400000000000001,0.8800000000000001 0.56,1.7600000000000002 0.56,2.63 c0,3.01 -1.92,6.02 -5.3100000000000005,6.02 c-2.6,0 -3.95,-1.25 -4.86,-3.39 l-14.34,-32.63 h-23.94 v29.87 C1092.1738543701172,186.4538696289062 1090.023854370117,189.2138696289062 1086.8638543701172,189.2138696289062 zM1092.1738543701172,115.67386962890623 v26.98 h27.22 c8.36,0 12.65,-6.02 12.65,-13.43 s-4.29,-13.55 -12.65,-13.55 H1092.1738543701172 z" id="svg_20"></path> <path class="st1" d="M1204.3138543701173,189.7138696289062 c-22.92,0 -38.17,-19.7 -38.17,-43.29 s15.25,-43.29 38.17,-43.29 s38.17,19.7 38.17,43.29 S1227.2338543701171,189.7138696289062 1204.3138543701173,189.7138696289062 zM1204.3138543701173,114.04386962890624 c-17.5,0 -27.33,15.18 -27.33,32.38 s9.82,32.38 27.33,32.38 c17.5,0 27.33,-15.18 27.33,-32.38 S1221.8138543701173,114.04386962890624 1204.3138543701173,114.04386962890624 z" id="svg_21"></path> <path class="st1" d="M1275.5738543701173,189.2138696289062 c-3.2800000000000002,0 -5.53,-2.7600000000000002 -5.53,-6.15 v-72.28 c0,-3.64 2.15,-6.15 5.53,-6.15 h28.68 c17.17,0 25.63,10.42 25.63,24.85 s-8.47,24.47 -25.63,24.47 h-23.38 v29.11 C1280.8838543701172,186.4538696289062 1278.7338543701171,189.2138696289062 1275.5738543701173,189.2138696289062 zM1280.8838543701172,115.67386962890623 v27.23 h25.52 c8.36,0 12.65,-6.02 12.65,-13.43 s-4.29,-13.8 -12.65,-13.8 H1280.8838543701172 z" id="svg_22"></path> <path class="st1" d="M1400.1338543701172,106.14386962890626 c1.13,-1.6300000000000001 2.37,-2.51 4.29,-2.51 c2.48,0 4.97,2.13 4.97,5.4 c0,1.51 -0.45,2.51 -1.13,3.64 l-24.96,38.78 v31.62 c0,3.39 -2.15,6.15 -5.53,6.15 s-5.53,-2.7600000000000002 -5.53,-6.15 v-31.62 l-24.96,-38.78 c-0.6800000000000002,-1.13 -1.13,-2.13 -1.13,-3.64 c0,-3.26 2.48,-5.4 4.97,-5.4 c1.92,0 3.16,0.8800000000000001 4.29,2.51 l22.36,34.63 L1400.1338543701172,106.14386962890626 z" id="svg_23"></path> </g><g id="svg_24" class=""> <path class="st1" d="M611.4138543701172,271.39386962890626 h-12.7 c-1.2,0 -2,-1.04 -2,-2.23 v-45 c0,-1.26 0.8700000000000001,-2.23 2,-2.23 h12.7 c13.5,0 22.18,10.92 22.18,24.73 C633.5938543701172,260.4738696289063 624.9038543701172,271.39386962890626 611.4138543701172,271.39386962890626 zM611.1438543701172,225.9538696289062 h-10.42 v41.43 h10.42 c11.63,0 18.44,-9.06 18.44,-20.71 S622.7738543701172,225.9538696289062 611.1438543701172,225.9538696289062 z" id="svg_25"></path> <path class="st1" d="M661.3238543701171,226.54386962890624 c1.4,0 2.54,1.26 2.54,2.8200000000000003 c0,1.56 -1.1400000000000001,2.8200000000000003 -2.54,2.8200000000000003 s-2.54,-1.26 -2.54,-2.8200000000000003 C658.7838543701172,227.81386962890622 659.9238543701172,226.54386962890624 661.3238543701171,226.54386962890624 zM661.3238543701171,271.9838696289063 c-1.1400000000000001,0 -2,-0.9600000000000001 -2,-2.23 v-28.96 c0,-1.26 0.8700000000000001,-2.23 2,-2.23 c1.1400000000000001,0 2,0.97 2,2.23 v28.96 C663.3338543701171,271.02386962890625 662.4638543701171,271.9838696289063 661.3238543701171,271.9838696289063 z" id="svg_26"></path> <path class="st1" d="M704.3638543701172,271.2438696289063 c-8.15,0 -14.83,-6.46 -14.83,-16.48 s6.68,-16.48 14.83,-16.48 c5.95,0 10.02,3.64 11.76,6.83 v-4.3100000000000005 c0,-1.26 0.8700000000000001,-2.23 2,-2.23 s2,0.97 2,2.23 v27.99 c0,10.02 -4.68,17.08 -15.37,17.08 c-5.21,0 -9.29,-1.56 -11.89,-3.34 c-0.6000000000000001,-0.37000000000000005 -1.2,-0.97 -1.2,-1.9300000000000002 c0,-1.04 0.6700000000000002,-1.6300000000000001 1.54,-1.6300000000000001 c0.6000000000000001,0 1.2,0.30000000000000004 1.7400000000000002,0.5900000000000001 c2.74,1.6300000000000001 5.95,2.67 9.82,2.67 c8.29,0 11.36,-5.57 11.36,-13.14 v-4.68 C713.7838543701172,268.64386962890626 709.1038543701172,271.2438696289063 704.3638543701172,271.2438696289063 zM704.7638543701172,267.6038696289063 c6.41,0 11.36,-5.87 11.36,-12.84 s-4.94,-12.84 -11.36,-12.84 c-6.68,0 -11.29,5.05 -11.29,12.84 S698.0838543701171,267.6038696289063 704.7638543701172,267.6038696289063 z" id="svg_27"></path> <path class="st1" d="M750.1338543701172,226.54386962890624 c1.4,0 2.54,1.26 2.54,2.8200000000000003 c0,1.56 -1.1400000000000001,2.8200000000000003 -2.54,2.8200000000000003 c-1.4,0 -2.54,-1.26 -2.54,-2.8200000000000003 C747.5938543701172,227.81386962890622 748.7338543701172,226.54386962890624 750.1338543701172,226.54386962890624 zM750.1338543701172,271.9838696289063 c-1.1400000000000001,0 -2,-0.9600000000000001 -2,-2.23 v-28.96 c0,-1.26 0.8700000000000001,-2.23 2,-2.23 c1.1400000000000001,0 2,0.97 2,2.23 v28.96 C752.1438543701172,271.02386962890625 751.2738543701172,271.9838696289063 750.1338543701172,271.9838696289063 z" id="svg_28"></path> <path class="st1" d="M794.4338543701172,239.16386962890624 c0.8700000000000001,0 1.6700000000000002,0.8200000000000001 1.6700000000000002,1.86 c0,1.04 -0.8,1.86 -1.6700000000000002,1.86 h-6.75 v26.88 c0,1.26 -0.8700000000000001,2.23 -2,2.23 c-1.1400000000000001,0 -2,-0.9600000000000001 -2,-2.23 v-26.88 h-5.95 c-0.9400000000000001,0 -1.6700000000000002,-0.8200000000000001 -1.6700000000000002,-1.86 c0,-1.04 0.7300000000000001,-1.86 1.6700000000000002,-1.86 h5.95 v-10.39 c0,-1.26 0.8700000000000001,-2.23 2,-2.23 c1.1400000000000001,0 2,0.97 2,2.23 v10.39 H794.4338543701172 z" id="svg_29"></path> <path class="st1" d="M841.2738543701172,271.9838696289063 c-1.27,0 -2,-1.04 -2,-2.23 v-1.6300000000000001 c-2.27,2.8200000000000003 -5.88,4.16 -9.96,4.16 c-7.15,0 -11.69,-4.16 -11.69,-9.73 c0,-5.94 4.88,-9.88 12.29,-9.88 c4.34,0 7.82,2 9.35,4.01 v-4.38 c0,-7.05 -3.14,-10.25 -9.69,-10.25 c-3.21,0 -5.61,0.7400000000000001 -8.22,1.9300000000000002 c-0.2,0.08000000000000002 -0.54,0.22000000000000003 -0.9400000000000001,0.22000000000000003 c-1.07,0 -1.7400000000000002,-0.6700000000000002 -1.7400000000000002,-1.86 c0,-0.7400000000000001 0.47000000000000003,-1.34 1,-1.6300000000000001 c2.6100000000000003,-1.49 5.75,-2.45 10.22,-2.45 c8.42,0 13.36,4.97 13.36,13.96 v17.52 C843.2838543701172,270.9438696289062 842.5438543701172,271.9838696289063 841.2738543701172,271.9838696289063 zM830.1838543701172,256.02386962890625 c-5.21,0 -8.55,2.6 -8.55,6.53 c0,4.01 3.34,6.46 8.29,6.46 c4.88,0 9.35,-2.52 9.35,-6.46 C839.2738543701172,258.4738696289063 834.7338543701172,256.02386962890625 830.1838543701172,256.02386962890625 z" id="svg_30"></path> <path class="st1" d="M873.0238543701171,271.9838696289063 c-1.1400000000000001,0 -2,-0.9600000000000001 -2,-2.23 v-46.18 c0,-1.26 0.8700000000000001,-2.23 2,-2.23 c1.1400000000000001,0 2,0.9600000000000001 2,2.23 v46.18 C875.0238543701171,271.02386962890625 874.1538543701172,271.9838696289063 873.0238543701171,271.9838696289063 z" id="svg_31"></path> <path class="st1" d="M978.8638543701172,268.9438696289062 c0.13,0.30000000000000004 0.27,0.6700000000000002 0.27,1.04 c0,1.11 -0.7400000000000001,2 -1.94,2 c-1,0 -1.54,-0.6700000000000002 -1.8,-1.4100000000000001 l-5.48,-13.59 h-22.99 l-5.48,13.59 c-0.27,0.7400000000000001 -0.8,1.4100000000000001 -1.8,1.4100000000000001 c-1.2,0 -1.94,-0.8900000000000001 -1.94,-2 c0,-0.37000000000000005 0.13,-0.7400000000000001 0.27,-1.04 l18.58,-46.11 c0.4,-0.97 0.9400000000000001,-1.49 1.87,-1.49 s1.47,0.52 1.87,1.49 L978.8638543701172,268.9438696289062 zM968.3738543701172,253.05386962890623 l-9.96,-25.47 l-9.96,25.47 H968.3738543701172 z" id="svg_32"></path> <path class="st1" d="M1017.3538543701172,271.2438696289063 c-8.15,0 -14.83,-6.46 -14.83,-16.48 s6.68,-16.48 14.83,-16.48 c5.95,0 10.02,3.64 11.76,6.83 v-4.3100000000000005 c0,-1.26 0.8700000000000001,-2.23 2,-2.23 c1.1400000000000001,0 2,0.97 2,2.23 v27.99 c0,10.02 -4.68,17.08 -15.37,17.08 c-5.21,0 -9.29,-1.56 -11.89,-3.34 c-0.6000000000000001,-0.37000000000000005 -1.2,-0.97 -1.2,-1.9300000000000002 c0,-1.04 0.6700000000000002,-1.6300000000000001 1.54,-1.6300000000000001 c0.6000000000000001,0 1.2,0.30000000000000004 1.7400000000000002,0.5900000000000001 c2.74,1.6300000000000001 5.95,2.67 9.82,2.67 c8.29,0 11.36,-5.57 11.36,-13.14 v-4.68 C1026.773854370117,268.64386962890626 1022.1038543701172,271.2438696289063 1017.3538543701172,271.2438696289063 zM1017.7538543701171,267.6038696289063 c6.42,0 11.36,-5.87 11.36,-12.84 s-4.94,-12.84 -11.36,-12.84 c-6.68,0 -11.29,5.05 -11.29,12.84 S1011.0738543701173,267.6038696289063 1017.7538543701171,267.6038696289063 z" id="svg_33"></path> <path class="st1" d="M1088.253854370117,254.91386962890624 c0,1.04 -0.8,1.86 -1.6700000000000002,1.86 h-23.19 c0.2,5.94 4.21,11.73 11.23,11.73 c3.74,0 6.68,-1.49 9.09,-4.68 c0.33000000000000007,-0.45 0.8,-0.97 1.54,-0.97 c1.07,0 1.6700000000000002,0.8900000000000001 1.6700000000000002,1.86 c0,0.52 -0.13,0.8900000000000001 -0.4,1.34 c-2.27,3.49 -6.62,6.24 -11.89,6.24 c-9.56,0 -15.3,-8.02 -15.3,-17 c0,-9.06 6.08,-17 14.9,-17 C1082.4438543701172,238.27386962890625 1088.253854370117,245.40386962890625 1088.253854370117,254.91386962890624 zM1074.2238543701171,241.99386962890628 c-5.88,0 -10.16,4.97 -10.69,11.06 h21.05 C1084.0438543701173,246.81386962890622 1079.9738543701171,241.99386962890628 1074.2238543701171,241.99386962890628 z" id="svg_34"></path> <path class="st1" d="M1141.8438543701172,269.76386962890626 c0,1.26 -0.8700000000000001,2.23 -2,2.23 s-2,-0.9600000000000001 -2,-2.23 v-16.48 c0,-6.68 -3.14,-10.91 -9.35,-10.91 c-5.68,0 -10.02,4.6 -10.02,11.88 v15.52 c0,1.26 -0.8700000000000001,2.23 -2,2.23 c-1.1400000000000001,0 -2,-0.9600000000000001 -2,-2.23 v-28.96 c0,-1.26 0.8700000000000001,-2.23 2,-2.23 c1.1400000000000001,0 2,0.97 2,2.23 v3.8600000000000003 c2.14,-4.08 6.01,-6.39 10.89,-6.39 c7.75,0 12.5,6.3100000000000005 12.5,14.92 V269.76386962890626 z" id="svg_35"></path> <path class="st1" d="M1194.8338543701173,244.51386962890626 c0.27,0.45 0.4,0.8200000000000001 0.4,1.34 c0,1.11 -0.8700000000000001,1.86 -1.94,1.86 c-0.6700000000000002,0 -1.07,-0.45 -1.4,-0.8900000000000001 c-2.41,-3.19 -4.88,-4.68 -8.82,-4.68 c-6.55,0 -11.29,5.87 -11.29,13.14 s4.74,13.14 11.29,13.14 c3.94,0 6.41,-1.49 8.82,-4.68 c0.33000000000000007,-0.45 0.7300000000000001,-0.8900000000000001 1.4,-0.8900000000000001 c1.07,0 1.94,0.7400000000000001 1.94,1.86 c0,0.52 -0.13,0.8900000000000001 -0.4,1.34 c-2,3.34 -6.28,6.24 -11.76,6.24 c-8.75,0 -15.3,-7.28 -15.3,-17 s6.55,-17 15.3,-17 C1188.5538543701173,238.27386962890625 1192.8338543701173,241.17386962890623 1194.8338543701173,244.51386962890626 z" id="svg_36"></path> <path class="st1" d="M1243.753854370117,241.54386962890624 c0,0 -6.55,17.82 -9.82,26.43 c-2.6100000000000003,6.9 -6.82,13.59 -12.76,17.52 c-0.33000000000000007,0.22000000000000003 -0.6700000000000002,0.37000000000000005 -1.2,0.37000000000000005 c-1.07,0 -1.7400000000000002,-0.8200000000000001 -1.7400000000000002,-1.86 c0,-0.8200000000000001 0.4,-1.34 1.2,-1.86 c3.67,-2.8200000000000003 6.41,-5.87 9.09,-10.99 l-11.36,-29.48 c-0.13,-0.37000000000000005 -0.27,-0.7400000000000001 -0.27,-1.11 c0,-1.11 0.7400000000000001,-2 1.87,-2 c0.9400000000000001,0 1.4,0.52 1.7400000000000002,1.4100000000000001 l10.09,26.43 l9.89,-26.58 c0.27,-0.7400000000000001 0.7400000000000001,-1.26 1.6700000000000002,-1.26 c1.1400000000000001,0 1.8,0.8900000000000001 1.8,2 C1243.9538543701171,240.87386962890628 1243.8838543701172,241.17386962890623 1243.753854370117,241.54386962890624 z" id="svg_37"></path> </g></g></svg> 